<svg width="35" height="35" viewBox="0 0 35 35" fill="none" xmlns="http://www.w3.org/2000/svg">
<g filter="url(#filter0_d_11_1141)">
<path fill-rule="evenodd" clip-rule="evenodd" d="M8.2318 12.5223C7.97335 12.7193 7.92347 13.0884 8.12038 13.3469C8.31729 13.6054 8.68642 13.6553 8.94487 13.4584L9.40679 13.1064L10.1503 23.5114C10.1723 23.8192 10.4285 24.0578 10.7372 24.0578H23.2477C23.5563 24.0578 23.8125 23.8192 23.8345 23.5114L24.5842 13.0204L25.1716 13.461C25.4315 13.656 25.8002 13.6033 25.9952 13.3434C26.1901 13.0834 26.1375 12.7146 25.8775 12.5196L17.3427 6.11768C17.1322 5.95978 16.8425 5.96088 16.6332 6.12036L8.2318 12.5223Z" fill="url(#paint0_linear_11_1141)"/>
<path fill-rule="evenodd" clip-rule="evenodd" d="M17.5876 11.0899C17.5876 11.3823 17.3506 11.6193 17.0582 11.6193C16.7659 11.6193 16.5289 11.3823 16.5289 11.0899C16.5289 10.7975 16.7659 10.5605 17.0582 10.5605C17.3506 10.5605 17.5876 10.7975 17.5876 11.0899ZM19.4402 14.2662C19.4402 15.1432 18.3144 15.8542 16.9257 15.8542C15.537 15.8542 14.4113 15.1432 14.4113 14.2662C14.4113 13.3891 15.537 12.6781 16.9257 12.6781C18.3144 12.6781 19.4402 13.3891 19.4402 14.2662ZM19.1756 12.1482C19.4679 12.1482 19.7049 11.9112 19.7049 11.6189C19.7049 11.3265 19.4679 11.0895 19.1756 11.0895C18.8832 11.0895 18.6462 11.3265 18.6462 11.6189C18.6462 11.9112 18.8832 12.1482 19.1756 12.1482ZM15.47 11.6189C15.47 11.9112 15.233 12.1482 14.9406 12.1482C14.6483 12.1482 14.4113 11.9112 14.4113 11.6189C14.4113 11.3265 14.6483 11.0895 14.9406 11.0895C15.233 11.0895 15.47 11.3265 15.47 11.6189ZM17.058 16.6474C15.0115 16.6474 13.3525 18.3064 13.3525 20.3529V24.0584H20.7635V20.3529C20.7635 18.3064 19.1045 16.6474 17.058 16.6474Z" fill="url(#paint1_linear_11_1141)"/>
</g>
<defs>
<filter id="filter0_d_11_1141" x="0" y="0" width="34.1128" height="34.0586" filterUnits="userSpaceOnUse" color-interpolation-filters="sRGB">
<feFlood flood-opacity="0" result="BackgroundImageFix"/>
<feColorMatrix in="SourceAlpha" type="matrix" values="0 0 0 0 0 0 0 0 0 0 0 0 0 0 0 0 0 0 127 0" result="hardAlpha"/>
<feOffset dy="2"/>
<feGaussianBlur stdDeviation="4"/>
<feComposite in2="hardAlpha" operator="out"/>
<feColorMatrix type="matrix" values="0 0 0 0 0.290641 0 0 0 0 0.675565 0 0 0 0 1 0 0 0 0.19 0"/>
<feBlend mode="normal" in2="BackgroundImageFix" result="effect1_dropShadow_11_1141"/>
<feBlend mode="normal" in="SourceGraphic" in2="effect1_dropShadow_11_1141" result="shape"/>
</filter>
<linearGradient id="paint0_linear_11_1141" x1="17.0564" y1="6" x2="17.0564" y2="24.0578" gradientUnits="userSpaceOnUse">
<stop stop-color="#4C9EE2"/>
<stop offset="1" stop-color="#73BFFF"/>
</linearGradient>
<linearGradient id="paint1_linear_11_1141" x1="17.058" y1="10.5605" x2="17.058" y2="24.0584" gradientUnits="userSpaceOnUse">
<stop stop-color="white"/>
<stop offset="1" stop-color="white" stop-opacity="0.59"/>
</linearGradient>
</defs>
</svg>
