<svg width="29" height="29" viewBox="0 0 29 29" fill="none" xmlns="http://www.w3.org/2000/svg">
<rect x="11.4656" y="4.41113" width="15.0517" height="12.9756" fill="url(#paint0_linear_11_1100)"/>
<path d="M10.9465 1.29688H27.0362L28.0743 4.67053H9.90845L10.9465 1.29688Z" fill="url(#paint1_linear_11_1100)"/>
<rect width="2.0761" height="2.0761" transform="matrix(1 0 0 -1 23.6626 2.07617)" fill="url(#paint2_linear_11_1100)"/>
<rect x="13.0227" y="6.22656" width="2.59512" height="2.59512" rx="0.5" fill="#FFFAF5"/>
<rect x="13.0227" y="11.418" width="2.59512" height="2.59512" rx="0.5" fill="#FFFAF5"/>
<rect x="17.6938" y="6.22656" width="2.59512" height="2.59512" rx="0.5" fill="#FFFAF5"/>
<rect x="17.6938" y="11.418" width="2.59512" height="2.59512" rx="0.5" fill="#FFFAF5"/>
<rect x="22.3652" y="6.22656" width="2.59512" height="2.59512" rx="0.5" fill="#FFFAF5"/>
<rect x="22.3652" y="11.418" width="2.59512" height="2.59512" rx="0.5" fill="#FFFAF5"/>
<g filter="url(#filter0_d_11_1100)">
<path fill-rule="evenodd" clip-rule="evenodd" d="M11.4898 13.5909C13.568 11.4546 18.7641 15.1929 11.4898 19.9998C4.21552 15.1934 9.41157 11.4546 11.4898 13.5909Z" fill="url(#paint3_linear_11_1100)"/>
</g>
<g filter="url(#filter1_d_11_1100)">
<path d="M7.05371 16.9199H8.53249L9.12401 15.7369L10.1099 18.0536L11.0464 16.3284L11.7858 16.8706L12.5745 14.8496L13.6096 17.4128L14.004 16.8706H15.8771" stroke="white" stroke-width="0.492928" stroke-linecap="round" stroke-linejoin="round"/>
</g>
<defs>
<filter id="filter0_d_11_1100" x="0.743652" y="7.97559" width="21.4922" height="21.0244" filterUnits="userSpaceOnUse" color-interpolation-filters="sRGB">
<feFlood flood-opacity="0" result="BackgroundImageFix"/>
<feColorMatrix in="SourceAlpha" type="matrix" values="0 0 0 0 0 0 0 0 0 0 0 0 0 0 0 0 0 0 127 0" result="hardAlpha"/>
<feOffset dy="2"/>
<feGaussianBlur stdDeviation="3.5"/>
<feComposite in2="hardAlpha" operator="out"/>
<feColorMatrix type="matrix" values="0 0 0 0 1 0 0 0 0 0.368627 0 0 0 0 0.196078 0 0 0 0.35 0"/>
<feBlend mode="normal" in2="BackgroundImageFix" result="effect1_dropShadow_11_1100"/>
<feBlend mode="normal" in="SourceGraphic" in2="effect1_dropShadow_11_1100" result="shape"/>
</filter>
<filter id="filter1_d_11_1100" x="3.80713" y="12.6035" width="15.3164" height="9.69629" filterUnits="userSpaceOnUse" color-interpolation-filters="sRGB">
<feFlood flood-opacity="0" result="BackgroundImageFix"/>
<feColorMatrix in="SourceAlpha" type="matrix" values="0 0 0 0 0 0 0 0 0 0 0 0 0 0 0 0 0 0 127 0" result="hardAlpha"/>
<feOffset dy="1"/>
<feGaussianBlur stdDeviation="1.5"/>
<feComposite in2="hardAlpha" operator="out"/>
<feColorMatrix type="matrix" values="0 0 0 0 0.754134 0 0 0 0 0.190122 0 0 0 0 0.0369334 0 0 0 1 0"/>
<feBlend mode="normal" in2="BackgroundImageFix" result="effect1_dropShadow_11_1100"/>
<feBlend mode="normal" in="SourceGraphic" in2="effect1_dropShadow_11_1100" result="shape"/>
</filter>
<linearGradient id="paint0_linear_11_1100" x1="18.9914" y1="4.41113" x2="18.9914" y2="17.3867" gradientUnits="userSpaceOnUse">
<stop stop-color="#FFAD97"/>
<stop offset="1" stop-color="#FF5B2E"/>
</linearGradient>
<linearGradient id="paint1_linear_11_1100" x1="18.9914" y1="1.29687" x2="18.9914" y2="4.67053" gradientUnits="userSpaceOnUse">
<stop stop-color="#FFAD97"/>
<stop offset="1" stop-color="#FF5B2E"/>
</linearGradient>
<linearGradient id="paint2_linear_11_1100" x1="1.03805" y1="0" x2="1.03805" y2="2.0761" gradientUnits="userSpaceOnUse">
<stop stop-color="#FFAD97"/>
<stop offset="1" stop-color="#FF5B2E"/>
</linearGradient>
<linearGradient id="paint3_linear_11_1100" x1="11.4898" y1="12.9756" x2="11.4898" y2="19.9998" gradientUnits="userSpaceOnUse">
<stop stop-color="#FF9071"/>
<stop offset="1" stop-color="#FF5B2E"/>
</linearGradient>
</defs>
</svg>
